<?xml version="1.0" encoding="UTF-8"?>
<svg width="16px" height="16px" viewBox="0 0 16 16" version="1.1" xmlns="http://www.w3.org/2000/svg">
    <!-- Generator: Sketch 51.3 (57544) - http://www.bohemiancoding.com/sketch -->
    <title>phone-white</title>
    <desc>Created with Sketch.</desc>
    <defs></defs>
    <g id="User-Identification" stroke="none" stroke-width="1" fill="none" fill-rule="evenodd">
        <g id="Type-phone-number" transform="translate(-483.000000, -193.000000)" stroke="#FFFFFF">
            <g id="phone-white" transform="translate(484.000000, 194.000000)">
                <path d="M10.1505443,9.12748435 C9.91019456,9.40325598 9.59184602,9.76819514 9.44787948,9.93329979 C9.37961366,10.0115798 9.29634287,10.0758025 9.20131144,10.1154937 C8.60462759,10.3639776 7.84045591,9.89981028 7.36340623,9.58048852 C6.3909224,8.92985491 5.50630548,8.06160842 4.76403294,7.15008741 C4.40445454,6.70852205 3.27718979,5.29024829 3.90577608,4.67131257 L4.68319539,3.90601531 C4.9158399,3.67696361 4.96612681,3.31602114 4.80539797,3.02991325 L3.30679418,0.362742701 C3.09848203,-0.00784695435 2.62062127,-0.114379421 2.28118467,0.13617171 C1.53972321,0.68330482 0.855848356,1.34992519 0.373661838,2.14829851 C-0.333734305,3.31932874 0.0884323596,4.77605342 0.609550673,5.93564485 C1.15824568,7.15628917 1.94566829,8.25758405 2.8229855,9.25303555 C3.08496405,9.55030661 4.52476461,10.9745065 4.92584321,11.3124336 C5.85601575,12.0967496 6.86891835,12.7968594 7.97306734,13.3014071 C8.95879879,13.7520684 10.2655824,14.2370461 11.3336384,13.8714178 C12.4018295,13.5056518 13.2814448,12.4144175 13.8828599,11.4892526 C14.114423,11.1331338 13.9904631,10.6506368 13.6185833,10.4536964 L10.8614552,8.99366414 C10.622322,8.8670104 10.3295225,8.92213717 10.1505443,9.12748435" id="Fill-1"></path>
            </g>
        </g>
    </g>
</svg>